<svg width="50" height="50" viewBox="0 0 50 50" fill="none" xmlns="http://www.w3.org/2000/svg">
<rect width="50" height="50" rx="25" fill="#7CC6D6"/>
<path d="M11.1113 18.6111C11.1113 15.3894 13.723 12.7778 16.9447 12.7778V12.7778C20.1663 12.7778 22.778 15.3894 22.778 18.6111V24.4444H16.9447C13.723 24.4444 11.1113 21.8328 11.1113 18.6111V18.6111Z" fill="white"/>
<path d="M36.6665 18.6111C36.6665 15.3894 34.0548 12.7778 30.8332 12.7778V12.7778C27.6115 12.7778 24.9998 15.3894 24.9998 18.6111V24.4444H30.8332C34.0548 24.4444 36.6665 21.8328 36.6665 18.6111V18.6111Z" fill="#3284AE"/>
<path d="M11.1113 32.5C11.1113 35.7217 13.723 38.3333 16.9447 38.3333V38.3333C20.1663 38.3333 22.778 35.7217 22.778 32.5V26.6667H16.9447C13.723 26.6667 11.1113 29.2783 11.1113 32.5V32.5Z" fill="#3284AE"/>
<path d="M36.6665 32.5C36.6665 35.7217 34.0548 38.3333 30.8332 38.3333V38.3333C27.6115 38.3333 24.9998 35.7217 24.9998 32.5V26.6667H30.8332C34.0548 26.6667 36.6665 29.2783 36.6665 32.5V32.5Z" fill="white"/>
<path fill-rule="evenodd" clip-rule="evenodd" d="M36.1111 26.6667C36.7248 26.6667 37.2222 26.1692 37.2222 25.5556C37.2222 24.9419 36.7248 24.4445 36.1111 24.4445C35.4975 24.4445 35 24.9419 35 25.5556C35 26.1692 35.4975 26.6667 36.1111 26.6667Z" fill="white"/>
<path fill-rule="evenodd" clip-rule="evenodd" d="M12.2224 26.6667C12.8361 26.6667 13.3336 26.1692 13.3336 25.5556C13.3336 24.9419 12.8361 24.4445 12.2224 24.4445C11.6088 24.4445 11.1113 24.9419 11.1113 25.5556C11.1113 26.1692 11.6088 26.6667 12.2224 26.6667Z" fill="white"/>
</svg>
